# xmcd
#
# Track frame offsets:
#	150
#	12475
#	25177
#	35485
#	46190
#	60465
#	73977
#	95807
#	114260
#	124742
#	139387
#	156487
#	166570
#	185907
#
# Disc length: 2613 seconds
#
# Revision: 0
# Processed by: cddbd v1.5.1PL0 Copyright (c) Steve Scherf et al.
# Submitted via: dBpowerAMP V4.0
#
DISCID=c60a330e
DTITLE=Butch Baldassari and David Schnaufer - Appalachian Mandolin and Dulcimer
DYEAR=2005
DGENRE=Country
TTITLE0=Ground Hog
TTITLE1=June Apple
TTITLE2=Muddy Roads
TTITLE3=Tater Patch
TTITLE4=Sandy River Belle
TTITLE5=Black Mt. Rag
TTITLE6=Wayfaring Stranger
TTITLE7=Drunken Hiccups
TTITLE8=Wolves-A-Howling
TTITLE9=Wild Rose of the Mountain
TTITLE10=Cheep Mountain
TTITLE11=Flop Eared Mule
TTITLE12=Cold Frosty Morning
TTITLE13=Pretty Saro
EXTD=
EXTT0=
EXTT1=
EXTT2=
EXTT3=
EXTT4=
EXTT5=
EXTT6=
EXTT7=
EXTT8=
EXTT9=
EXTT10=
EXTT11=
EXTT12=
EXTT13=
PLAYORDER=
